<svg width="13" height="24" viewBox="0 0 13 24" fill="none" xmlns="http://www.w3.org/2000/svg">
<g clip-path="url(#clip0_116_63)">
<path d="M12.5105 0.004875L9.39231 0C5.88937 0 3.62551 2.31825 3.62551 5.90625V8.62988H0.490286C0.360286 8.62988 0.235486 8.68125 0.143371 8.77312C0.0979827 8.81837 0.0619389 8.87227 0.0373284 8.93168C0.012718 8.9911 3.01056e-05 9.05485 0 9.11925L0 13.065C0 13.1947 0.052 13.3193 0.143743 13.4111C0.235486 13.503 0.360286 13.5544 0.490286 13.5544H3.62514V23.5106C3.62514 23.6404 3.67714 23.7649 3.76889 23.8568C3.861 23.9486 3.9858 24 4.1158 24H8.20597C8.33597 24 8.46077 23.9486 8.55289 23.8568C8.64463 23.7649 8.69626 23.6404 8.69626 23.5106V13.5544H12.3623C12.4923 13.5544 12.6171 13.503 12.7088 13.4111C12.8009 13.3193 12.8525 13.1947 12.8525 13.065L12.854 9.11925C12.854 8.84925 12.6341 8.62988 12.3634 8.62988H8.69626V6.321C8.69626 5.21175 8.96146 4.6485 10.4093 4.6485L12.5101 4.64738C12.7805 4.64738 13.0004 4.42838 13 4.158V0.49425C13 0.22425 12.7809 0.005625 12.5105 0.004875Z" fill="#EEEADE"/>
</g>
<defs>
<clipPath id="clip0_116_63">
<rect width="13" height="24" fill="white"/>
</clipPath>
</defs>
</svg>
