<svg width="50" height="51" viewBox="0 0 50 51" fill="none" xmlns="http://www.w3.org/2000/svg">
<path d="M26.0446 50.4405C25.6428 50.4405 25.2505 50.4121 24.8771 50.3552C19.2239 49.4834 13.6888 44.7265 8.41849 36.2124C6.29144 32.7727 4.60871 30.4795 4.58981 30.4558C4.10295 29.873 3.14814 29.3708 2.30205 28.9255C1.20544 28.3474 0.34044 27.8926 0.226998 27.0871L0.217544 27.0113C0.0331998 25.751 0.326258 25.1256 2.33041 24.1212L2.42967 24.0785C6.28199 22.7945 9.54819 25.9074 11.5003 27.7694C11.9683 28.2148 12.3701 28.5938 12.6253 28.7644C14.0623 29.7262 15.4188 29.9583 16.6572 29.4561C18.6756 27.9352 18.1036 24.8603 18.0989 24.8271L18.0847 24.7039L17.4797 5.59105C17.4655 5.25465 17.4324 3.47792 18.3069 2.56823C18.6472 2.21289 19.0821 2.02811 19.5689 2.02811C21.2091 2.02811 21.9465 3.63427 22.1261 4.58186C22.1261 4.60555 24.0594 17.1848 24.4233 19.4827C24.5131 20.056 24.688 20.2929 24.7826 20.3119C25 20.3592 25.5767 20.0276 26.0635 19.2979C26.7111 18.3267 28.857 9.443 30.0576 4.07016C30.3318 2.66299 31.3291 0.31297 33.3238 0.578295C33.891 0.654102 34.3495 0.943117 34.6568 1.40744C35.4414 2.61088 34.9309 4.65767 34.7986 5.1362C33.5649 11.3145 32.4352 18.1229 32.3454 20.5582C32.3454 20.5393 32.3548 20.5251 32.3596 20.5109L32.4021 20.3829L37.4503 8.68967C37.5732 8.27273 38.2444 6.22119 39.5348 5.55314C40.0264 5.30203 40.5605 5.26413 41.0757 5.44891C42.9475 6.1217 42.8341 8.32958 42.5127 9.40983L38.4949 20.6293C37.37 23.1831 36.538 25.879 36.6137 26.6844C36.9115 26.5565 37.4976 25.8553 37.8521 25.1683L37.8993 25.083L43.5762 18.8431C44.3608 17.9476 47.074 15.0906 48.7473 16.3225C49.5745 16.9337 49.8061 17.6539 49.8534 18.1466C49.9715 19.4164 49.064 20.4919 48.8749 20.6956C48.5157 21.1457 42.1014 29.1387 40.4943 31.7303C39.5726 33.218 37.9655 37.1268 36.5428 40.5761C35.4036 43.3478 34.4157 45.7452 33.8674 46.707C32.6715 48.8059 29.117 50.4357 26.0541 50.4357L26.0446 50.4405ZM1.71593 26.7981C1.89082 26.9924 2.55729 27.343 3.00634 27.5799C3.97532 28.0916 5.07666 28.6696 5.78095 29.5177C5.82349 29.5746 7.53931 31.9151 9.70417 35.4117C14.7287 43.5278 19.914 48.0526 25.104 48.8533C27.6848 49.2513 31.5088 47.7635 32.5345 45.9631C33.0355 45.0866 34.047 42.6181 35.1247 40.0075C36.5664 36.5014 38.1971 32.531 39.1898 30.9391C40.8867 28.21 47.4143 20.0797 47.6932 19.7338L47.731 19.6912C47.9106 19.4922 48.3786 18.8478 48.3266 18.2935C48.2982 18.0234 48.1375 17.7818 47.835 17.5591C47.5609 17.3601 46.0483 18.3172 44.6917 19.8665L39.133 25.9784C38.8778 26.4522 37.9986 27.9115 36.902 28.1911C36.4671 28.3 36.0417 28.229 35.673 27.9826C35.276 27.7173 34.0565 26.9023 37.0769 20.0513L41.0521 8.94552C41.0521 8.94552 41.5248 7.24459 40.5463 6.89398C40.4234 6.85134 40.3289 6.85608 40.2107 6.91767C39.653 7.20195 39.0952 8.40539 38.8778 9.1682L38.8447 9.25822L33.8012 20.9373C33.7162 21.25 33.4231 22.1597 32.6952 22.5008C32.2981 22.6903 31.8444 22.6761 31.4142 22.4581C30.795 22.1502 30.3082 21.9038 31.7876 13.0628C32.4777 8.95499 33.2908 4.85666 33.3002 4.81402L33.3144 4.75243C33.5224 4.02278 33.6831 2.72459 33.3711 2.24132C33.3191 2.16077 33.2577 2.10392 33.1111 2.08496C32.1894 1.96178 31.6364 3.86643 31.5324 4.38287C30.9983 6.76606 28.3087 18.6488 27.3161 20.1413C26.5078 21.3542 25.3876 21.9986 24.4517 21.7948C23.8845 21.6717 23.1566 21.2073 22.9202 19.7149C22.5563 17.417 20.6277 4.83297 20.6277 4.83297C20.6277 4.83297 20.3489 3.54425 19.5689 3.54425C19.5075 3.54425 19.465 3.55373 19.4035 3.61532C19.0868 3.94698 18.9734 4.95616 18.997 5.53419L19.5973 24.5997C19.6966 25.1588 20.2023 28.7881 17.4703 30.7448L17.3285 30.8254C15.5937 31.5692 13.6747 31.2992 11.7792 30.0341C11.4153 29.7925 10.9899 29.385 10.4557 28.8733C8.6501 27.1535 5.92275 24.5571 2.95907 25.5094C1.63085 26.1774 1.64503 26.2864 1.72066 26.7934L1.71593 26.7981Z" fill="white"/>
<path d="M28.3797 31.2139C27.1649 31.2139 26.1013 32.332 25.5058 33.2938C24.9102 32.332 23.8467 31.2139 22.6319 31.2139C20.7648 31.2139 19.2523 32.73 19.2523 34.6015C19.2523 35.9708 20.0653 37.0605 21.0626 37.847L25.5058 41.4668L29.9489 37.847C30.9463 37.0605 31.7593 35.9708 31.7593 34.6015C31.7593 32.73 30.2467 31.2139 28.3797 31.2139Z" fill="white"/>
</svg>
