<svg width="68" height="39" viewBox="0 0 68 39" fill="none" xmlns="http://www.w3.org/2000/svg">
<path d="M61.6591 29.898C60.0543 29.898 58.9561 29.8729 58.3091 29.8528C57.4867 29.8226 56.7796 29.2743 56.5438 28.4845C55.8568 26.1403 53.6051 17.6137 53.5449 6.23998C53.5399 5.22383 54.3322 4.37872 55.3453 4.32339L63.0182 3.88574C63.9861 3.83041 64.8286 4.50448 64.9991 5.44517C65.5859 8.62439 67.5217 19.636 67.8978 27.8406C67.9229 28.3587 67.7373 28.8567 67.3862 29.239C67.0352 29.6214 66.5487 29.8377 66.0322 29.8477C64.287 29.888 62.8326 29.9031 61.6541 29.9031L61.6591 29.898ZM55.4406 5.93312C55.2851 5.94318 55.1597 6.07397 55.1597 6.22992C55.2199 17.3924 57.4215 25.7379 58.0935 28.0267C58.1286 28.1474 58.2389 28.233 58.3643 28.238C59.4626 28.2732 61.9199 28.3235 66.0021 28.233C66.1124 28.233 66.1827 28.1726 66.2178 28.1374C66.2478 28.1022 66.303 28.0267 66.298 27.916C65.9269 19.8171 64.0062 8.89604 63.4244 5.74197C63.3993 5.59608 63.2589 5.49548 63.1135 5.50051L55.4406 5.93815V5.93312Z" fill="white"/>
<path d="M6.83029 28.0972C5.65177 28.0972 4.19742 28.0821 2.44719 28.0418C1.93065 28.0318 1.44921 27.8155 1.09314 27.4332C0.73708 27.0508 0.556541 26.5579 0.581615 26.0347C0.95774 17.8301 2.89352 6.81851 3.48028 3.63928C3.6558 2.69357 4.50334 2.02452 5.4612 2.07986L13.1391 2.5175C14.1522 2.57284 14.9445 3.41795 14.9395 4.43409C14.8793 15.8129 12.6276 24.3394 11.9406 26.6786C11.7099 27.4684 10.9977 28.0167 10.1753 28.0469C9.53337 28.067 8.43509 28.0921 6.8353 28.0921L6.83029 28.0972ZM5.35087 3.69462C5.20543 3.69462 5.08507 3.79523 5.06 3.93608C4.47826 7.09015 2.55752 18.0062 2.18641 26.1102C2.1814 26.2208 2.23656 26.2963 2.26665 26.3315C2.29674 26.3667 2.37197 26.4271 2.4823 26.4271C6.56951 26.5176 9.02184 26.4723 10.1201 26.4321C10.2505 26.4321 10.3558 26.3466 10.3959 26.2208C11.068 23.932 13.2695 15.5916 13.3297 4.42403C13.3297 4.26809 13.2043 4.1373 13.0489 4.12723L5.37594 3.68959C5.37594 3.68959 5.36591 3.68959 5.35588 3.68959L5.35087 3.69462Z" fill="white"/>
<path d="M49.1167 29.2944C48.0936 29.2944 46.9953 29.0127 45.9422 28.4241C43.5952 27.1162 37.7778 22.121 37.527 21.9097C37.191 21.6179 37.1509 21.1099 37.4418 20.7728C37.7326 20.4358 38.2392 20.3956 38.5752 20.6873C38.6353 20.7376 44.5129 25.7882 46.7245 27.0156C48.7255 28.1323 50.6161 27.7198 51.2932 26.6836C52.2962 25.1342 50.3403 22.9912 49.4477 22.1411C48.0585 20.8131 37.0907 14.2786 32.6725 11.6879L29.2222 12.1105C28.7307 13.1568 27.2563 15.6368 23.8712 17.156C22.8181 17.6288 21.3035 18.157 20.3256 17.3018C19.2123 16.3259 19.6737 14.3188 20.2955 12.1658L20.3407 12.0098L20.441 11.8841C24.3426 7.04986 26.9655 1.40573 26.9956 1.3504L27.2112 0.882568H40.0094L54.1668 6.76816C54.578 6.93919 54.7736 7.41205 54.6031 7.82454C54.4326 8.23704 53.9611 8.43322 53.5499 8.26219L39.6885 2.50236H28.2343C27.5171 3.97124 25.1551 8.58916 21.8 12.7795C21.113 15.2092 21.1932 15.9235 21.3838 16.0895C21.469 16.165 21.9705 16.2404 23.2143 15.6871C26.8301 14.0673 27.8631 11.2301 27.9033 11.1094L28.0688 10.6365L28.5652 10.5711L33.0186 10.0228L33.2543 10.1587C34.834 11.0843 48.7506 19.2486 50.561 20.9741C53.0935 23.3937 53.8308 25.7328 52.6422 27.5639C51.905 28.7008 50.5961 29.2994 49.1167 29.2994V29.2944Z" fill="white"/>
<path d="M14.3327 5.21376L13.9315 3.6493C14.1271 3.59899 18.6958 2.42188 21.5794 2.42188H26.9605V4.03664H21.5794C18.8964 4.03664 14.3779 5.19866 14.3327 5.21376Z" fill="white"/>
<path d="M32.8882 38.1377C29.7989 38.1377 25.2955 35.0642 21.795 32.217C18.455 31.1958 11.8102 26.0094 11.5243 25.7881L12.5173 24.5154C12.5875 24.5707 19.4229 29.903 22.3918 30.7078L22.5573 30.7531L22.6877 30.8638C27.7679 35.0139 31.835 37.0814 33.5953 36.4173C35.1349 35.4465 35.7467 34.4957 35.7517 34.4857L37.1208 35.3358C37.0907 35.3861 36.3134 36.6236 34.3826 37.8259L34.2723 37.8862C33.8561 38.0623 33.3947 38.1428 32.8932 38.1428L32.8882 38.1377Z" fill="white"/>
<path d="M39.3776 35.9798C36.0727 35.9798 29.8742 30.8236 28.5703 29.7018C28.2343 29.4101 28.1941 28.902 28.48 28.565C28.7709 28.2279 29.2774 28.1877 29.6134 28.4744C33.3796 31.6989 38.2843 34.853 39.6433 34.3298C41.6443 33.5551 41.6694 33.4394 41.88 32.373C41.9051 32.2472 41.9302 32.1114 41.9653 31.9705C42.0606 31.5329 42.4868 31.2562 42.9232 31.3518C43.3595 31.4474 43.6353 31.875 43.54 32.3126C43.5099 32.4484 43.4848 32.5742 43.4598 32.6949C43.1338 34.3298 42.7727 34.853 40.2251 35.844C39.9743 35.9395 39.6885 35.9848 39.3776 35.9848V35.9798Z" fill="white"/>
<path d="M44.5881 32.3278C41.2832 32.3278 35.0847 27.1716 33.7808 26.0498C33.4448 25.7581 33.4047 25.25 33.6906 24.913C33.9814 24.5759 34.4879 24.5307 34.8239 24.8224C38.5902 28.0469 43.4999 31.201 44.8539 30.6778C46.8549 29.9031 46.88 29.7874 47.0906 28.721C47.1157 28.5952 47.1408 28.4594 47.1759 28.3186C47.2711 27.8809 47.6974 27.6042 48.1337 27.6998C48.57 27.7954 48.8459 28.223 48.7506 28.6606C48.7205 28.7965 48.6954 28.9222 48.6703 29.0429C48.3444 30.6778 47.9833 31.201 45.4357 32.1869C45.1849 32.2825 44.8991 32.3278 44.5881 32.3278Z" fill="white"/>
<path d="M53.7054 25.8686C52.9582 25.8686 52.3614 25.6825 52.2561 25.6473C51.885 25.5215 51.6793 25.1191 51.8047 24.7468C51.9301 24.3746 52.3313 24.1683 52.7024 24.2941C53.0334 24.3997 54.0314 24.5959 54.6883 24.2186C55.0444 24.0174 55.2751 23.6603 55.3904 23.1371C55.4757 22.7498 55.8568 22.5133 56.238 22.5938C56.6241 22.6793 56.8648 23.0616 56.7796 23.444C56.574 24.3645 56.0925 25.0587 55.3854 25.4612C54.8338 25.773 54.232 25.8686 53.7004 25.8686H53.7054Z" fill="white"/>
</svg>
