<svg width="53" height="49" viewBox="0 0 53 49" fill="none" xmlns="http://www.w3.org/2000/svg">
<path d="M30.1055 29.5508C28.7016 29.5508 27.4727 30.8442 26.7826 31.9624C26.0924 30.8442 24.8635 29.5508 23.4596 29.5508C21.2995 29.5508 19.5459 31.3086 19.5459 33.4738C19.5459 35.0563 20.4865 36.3166 21.6398 37.231L26.7826 41.4193L31.9253 37.231C33.0786 36.3166 34.0192 35.0563 34.0192 33.4738C34.0192 31.3086 32.2656 29.5508 30.1055 29.5508Z" fill="white"/>
<path d="M26.6171 21.4441C22.122 21.4441 18.4634 17.7769 18.4634 13.2711C18.4634 8.76532 22.122 5.09814 26.6171 5.09814C31.1123 5.09814 34.7708 8.76532 34.7708 13.2711C34.7708 17.7769 31.1123 21.4441 26.6171 21.4441ZM26.6171 6.61429C22.9539 6.61429 19.976 9.5992 19.976 13.2711C19.976 16.943 22.9539 19.9279 26.6171 19.9279C30.2804 19.9279 33.2582 16.943 33.2582 13.2711C33.2582 9.5992 30.2804 6.61429 26.6171 6.61429Z" fill="white"/>
<path d="M26.6171 48.1565C26.1066 48.1565 14.0675 48.1186 14.0675 44.8258V33.1135C14.0675 26.1772 19.6971 20.5295 26.6171 20.5295C33.5371 20.5295 39.1714 26.1724 39.1714 33.1135V44.8258C39.1714 48.1186 27.1323 48.1565 26.6171 48.1565ZM15.5754 44.7878C15.9677 45.4654 19.924 46.6404 26.6171 46.6404C33.3102 46.6404 37.2665 45.4606 37.6588 44.7878V33.1183C37.6588 27.0158 32.7052 22.0504 26.6171 22.0504C20.529 22.0504 15.5754 27.0158 15.5754 33.1183V44.7878Z" fill="white"/>
<path d="M16.015 9.88821C13.4483 9.88821 11.3591 7.79403 11.3591 5.22133C11.3591 2.64862 13.4483 0.554443 16.015 0.554443C18.5816 0.554443 20.6708 2.64862 20.6708 5.22133C20.6708 7.79403 18.5816 9.88821 16.015 9.88821ZM16.015 2.07059C14.2802 2.07059 12.8717 3.4825 12.8717 5.22133C12.8717 6.96015 14.2802 8.37206 16.015 8.37206C17.7497 8.37206 19.1583 6.96015 19.1583 5.22133C19.1583 3.4825 17.7497 2.07059 16.015 2.07059Z" fill="white"/>
<path d="M11.4867 12.622L10.2341 11.7739C11.534 9.84551 13.6989 8.68945 16.0197 8.68945C17.5181 8.68945 18.9456 9.15851 20.1509 10.0445L19.2528 11.2669C18.3122 10.5704 17.1919 10.2056 16.0197 10.2056C14.1999 10.2056 12.5077 11.1105 11.4915 12.622H11.4867Z" fill="white"/>
<path d="M37.6258 9.88821C35.0591 9.88821 32.9699 7.79403 32.9699 5.22133C32.9699 2.64862 35.0591 0.554443 37.6258 0.554443C40.1924 0.554443 42.2816 2.64862 42.2816 5.22133C42.2816 7.79403 40.1924 9.88821 37.6258 9.88821ZM37.6258 2.07059C35.8911 2.07059 34.4825 3.4825 34.4825 5.22133C34.4825 6.96015 35.8911 8.37206 37.6258 8.37206C39.3605 8.37206 40.7691 6.96015 40.7691 5.22133C40.7691 3.4825 39.3605 2.07059 37.6258 2.07059Z" fill="white"/>
<path d="M42.154 12.622C41.133 11.1105 39.4408 10.2056 37.6258 10.2056C36.4535 10.2056 35.3333 10.5704 34.3927 11.2669L33.4946 10.0445C34.6999 9.15851 36.1274 8.68945 37.6258 8.68945C39.9466 8.68945 42.1067 9.84077 43.4113 11.7691L42.1587 12.6172L42.154 12.622Z" fill="white"/>
<path d="M10.3098 23.9693C6.86868 23.9693 4.0657 21.1645 4.0657 17.7105C4.0657 14.2565 6.86395 11.4517 10.3098 11.4517C13.7556 11.4517 16.5538 14.2565 16.5538 17.7105C16.5538 21.1645 13.7556 23.9693 10.3098 23.9693ZM10.3098 12.9725C7.70059 12.9725 5.57827 15.0999 5.57827 17.7152C5.57827 20.3306 7.70059 22.4579 10.3098 22.4579C12.9189 22.4579 15.0413 20.3306 15.0413 17.7152C15.0413 15.0999 12.9189 12.9725 10.3098 12.9725Z" fill="white"/>
<path d="M10.3098 43.7788C8.72157 43.7788 0.80423 43.6509 0.80423 41.1114V32.4267C0.80423 27.1723 5.06778 22.8987 10.3098 22.8987C12.9946 22.8987 15.5659 24.0453 17.3668 26.0399L16.2419 27.0539C14.7293 25.3719 12.5644 24.4101 10.3098 24.4101C5.90441 24.4101 2.3168 28.0015 2.3168 32.422V41.0024C2.77057 41.4525 5.51682 42.2579 10.3098 42.2579C11.742 42.2579 13.16 42.1774 14.4079 42.0305L14.5875 43.5372C13.2829 43.6935 11.8034 43.7741 10.3145 43.7741L10.3098 43.7788Z" fill="white"/>
<path d="M43.1467 23.9693C39.7056 23.9693 36.9026 21.1645 36.9026 17.7105C36.9026 14.2565 39.7008 11.4517 43.1467 11.4517C46.5925 11.4517 49.3907 14.2565 49.3907 17.7105C49.3907 21.1645 46.5925 23.9693 43.1467 23.9693ZM43.1467 12.9725C40.5375 12.9725 38.4152 15.0999 38.4152 17.7152C38.4152 20.3306 40.5375 22.4579 43.1467 22.4579C45.7558 22.4579 47.8781 20.3306 47.8781 17.7152C47.8781 15.0999 45.7558 12.9725 43.1467 12.9725Z" fill="white"/>
<path d="M43.1466 43.7789C41.5443 43.7789 39.975 43.6841 38.5995 43.5088L38.7933 42.0069C40.1073 42.1774 41.6104 42.2675 43.1466 42.2675C47.9396 42.2675 50.6811 41.462 51.1396 41.0119V32.4315C51.1396 28.0157 47.5567 24.4196 43.1466 24.4196C40.9109 24.4196 38.8358 25.3246 37.3043 26.9639L36.1983 25.931C37.9897 24.0074 40.5233 22.9082 43.1419 22.9082C48.3839 22.9082 52.6427 27.1818 52.6427 32.4362V41.1209C52.6427 43.6604 44.7254 43.7883 43.1419 43.7883L43.1466 43.7789Z" fill="white"/>
</svg>
